<mxfile host="app.diagrams.net" modified="2023-12-03T20:10:45.859Z" agent="Mozilla/5.0 (Windows NT 10.0; Win64; x64) AppleWebKit/537.36 (KHTML, like Gecko) Chrome/119.0.0.0 Safari/537.36 Edg/119.0.0.0" etag="-mAxn2mqB5Gk6IFDoUeO" version="22.1.4" type="device">
  <diagram name="Страница — 1" id="e6d-LzjELbtayF8ROmFh">
    <mxGraphModel dx="1206" dy="737" grid="1" gridSize="10" guides="1" tooltips="1" connect="1" arrows="1" fold="1" page="1" pageScale="1" pageWidth="827" pageHeight="1169" math="0" shadow="0">
      <root>
        <mxCell id="0" />
        <mxCell id="1" parent="0" />
        <mxCell id="jPC34qyZusBdzCv74OJ4-200" value="" style="edgeStyle=orthogonalEdgeStyle;rounded=0;orthogonalLoop=1;jettySize=auto;html=1;" parent="1" source="jPC34qyZusBdzCv74OJ4-113" target="jPC34qyZusBdzCv74OJ4-196" edge="1">
          <mxGeometry relative="1" as="geometry" />
        </mxCell>
        <mxCell id="jPC34qyZusBdzCv74OJ4-113" value="&lt;font style=&quot;font-size: 10px;&quot;&gt;intFlComp (double number)&lt;/font&gt;" style="strokeWidth=1;html=1;shape=mxgraph.flowchart.terminator;whiteSpace=wrap;" parent="1" vertex="1">
          <mxGeometry x="190" y="50" width="100" height="60" as="geometry" />
        </mxCell>
        <mxCell id="jPC34qyZusBdzCv74OJ4-199" style="edgeStyle=orthogonalEdgeStyle;rounded=0;orthogonalLoop=1;jettySize=auto;html=1;entryX=0;entryY=0.5;entryDx=0;entryDy=0;" parent="1" source="jPC34qyZusBdzCv74OJ4-115" target="jPC34qyZusBdzCv74OJ4-198" edge="1">
          <mxGeometry relative="1" as="geometry" />
        </mxCell>
        <mxCell id="jPC34qyZusBdzCv74OJ4-115" value="i &amp;lt; lenIntN?" style="rhombus;whiteSpace=wrap;html=1;" parent="1" vertex="1">
          <mxGeometry x="180" y="529" width="120" height="60" as="geometry" />
        </mxCell>
        <mxCell id="jPC34qyZusBdzCv74OJ4-121" value="&lt;font style=&quot;font-size: 15px;&quot;&gt;да&lt;/font&gt;" style="text;strokeColor=none;fillColor=none;html=1;fontSize=24;fontStyle=1;verticalAlign=middle;align=center;" parent="1" vertex="1">
          <mxGeometry x="260" y="523" width="100" height="40" as="geometry" />
        </mxCell>
        <mxCell id="jPC34qyZusBdzCv74OJ4-206" value="" style="edgeStyle=orthogonalEdgeStyle;rounded=0;orthogonalLoop=1;jettySize=auto;html=1;" parent="1" source="jPC34qyZusBdzCv74OJ4-115" target="jPC34qyZusBdzCv74OJ4-205" edge="1">
          <mxGeometry relative="1" as="geometry" />
        </mxCell>
        <mxCell id="jPC34qyZusBdzCv74OJ4-122" value="&lt;font style=&quot;font-size: 15px;&quot;&gt;нет&lt;/font&gt;" style="text;strokeColor=none;fillColor=none;html=1;fontSize=24;fontStyle=1;verticalAlign=middle;align=center;" parent="1" vertex="1">
          <mxGeometry x="210" y="810" width="100" height="40" as="geometry" />
        </mxCell>
        <mxCell id="jPC34qyZusBdzCv74OJ4-144" value="1" style="text;strokeColor=none;fillColor=none;html=1;fontSize=24;fontStyle=1;verticalAlign=middle;align=center;" parent="1" vertex="1">
          <mxGeometry x="190" width="100" height="40" as="geometry" />
        </mxCell>
        <mxCell id="jPC34qyZusBdzCv74OJ4-147" value="D" style="text;strokeColor=none;fillColor=none;html=1;fontSize=24;fontStyle=1;verticalAlign=middle;align=center;" parent="1" vertex="1">
          <mxGeometry x="90" y="420" width="100" height="40" as="geometry" />
        </mxCell>
        <mxCell id="jPC34qyZusBdzCv74OJ4-148" value="C" style="text;strokeColor=none;fillColor=none;html=1;fontSize=24;fontStyle=1;verticalAlign=middle;align=center;" parent="1" vertex="1">
          <mxGeometry x="90" y="300" width="100" height="40" as="geometry" />
        </mxCell>
        <mxCell id="jPC34qyZusBdzCv74OJ4-149" value="B" style="text;strokeColor=none;fillColor=none;html=1;fontSize=24;fontStyle=1;verticalAlign=middle;align=center;" parent="1" vertex="1">
          <mxGeometry x="90" y="180" width="100" height="40" as="geometry" />
        </mxCell>
        <mxCell id="jPC34qyZusBdzCv74OJ4-150" value="A" style="text;strokeColor=none;fillColor=none;html=1;fontSize=24;fontStyle=1;verticalAlign=middle;align=center;" parent="1" vertex="1">
          <mxGeometry x="90" y="60" width="100" height="40" as="geometry" />
        </mxCell>
        <mxCell id="jPC34qyZusBdzCv74OJ4-151" value="E" style="text;strokeColor=none;fillColor=none;html=1;fontSize=24;fontStyle=1;verticalAlign=middle;align=center;" parent="1" vertex="1">
          <mxGeometry x="90" y="540" width="100" height="40" as="geometry" />
        </mxCell>
        <mxCell id="jPC34qyZusBdzCv74OJ4-152" value="F" style="text;strokeColor=none;fillColor=none;html=1;fontSize=24;fontStyle=1;verticalAlign=middle;align=center;" parent="1" vertex="1">
          <mxGeometry x="90" y="660" width="100" height="40" as="geometry" />
        </mxCell>
        <mxCell id="jPC34qyZusBdzCv74OJ4-177" style="edgeStyle=orthogonalEdgeStyle;rounded=0;orthogonalLoop=1;jettySize=auto;html=1;entryX=0.5;entryY=0;entryDx=0;entryDy=0;" parent="1" edge="1">
          <mxGeometry relative="1" as="geometry">
            <mxPoint x="220" y="650" as="targetPoint" />
            <Array as="points">
              <mxPoint x="160" y="920" />
              <mxPoint x="160" y="821" />
              <mxPoint x="161" y="821" />
              <mxPoint x="161" y="620" />
              <mxPoint x="220" y="620" />
            </Array>
          </mxGeometry>
        </mxCell>
        <mxCell id="jPC34qyZusBdzCv74OJ4-178" value="G" style="text;strokeColor=none;fillColor=none;html=1;fontSize=24;fontStyle=1;verticalAlign=middle;align=center;" parent="1" vertex="1">
          <mxGeometry x="90" y="780" width="100" height="40" as="geometry" />
        </mxCell>
        <mxCell id="s2RxMkuQKkNdRKX4wx6J-6" value="" style="edgeStyle=orthogonalEdgeStyle;rounded=0;orthogonalLoop=1;jettySize=auto;html=1;" edge="1" parent="1" source="jPC34qyZusBdzCv74OJ4-196" target="s2RxMkuQKkNdRKX4wx6J-3">
          <mxGeometry relative="1" as="geometry" />
        </mxCell>
        <mxCell id="jPC34qyZusBdzCv74OJ4-196" value="doppelFloatN = modf (number,&amp;amp;doppelIntN);&lt;br&gt;intN = (int)doppelIntN" style="rounded=0;whiteSpace=wrap;html=1;" parent="1" vertex="1">
          <mxGeometry x="180" y="170" width="120" height="60" as="geometry" />
        </mxCell>
        <mxCell id="jPC34qyZusBdzCv74OJ4-203" style="edgeStyle=orthogonalEdgeStyle;rounded=0;orthogonalLoop=1;jettySize=auto;html=1;entryX=0.5;entryY=0;entryDx=0;entryDy=0;" parent="1" source="jPC34qyZusBdzCv74OJ4-197" target="jPC34qyZusBdzCv74OJ4-115" edge="1">
          <mxGeometry relative="1" as="geometry" />
        </mxCell>
        <mxCell id="jPC34qyZusBdzCv74OJ4-197" value="lenIntN = (int)floor (log10(abs(intN))) + 1;&lt;br&gt;i = 0" style="rounded=0;whiteSpace=wrap;html=1;" parent="1" vertex="1">
          <mxGeometry x="180" y="410" width="120" height="60" as="geometry" />
        </mxCell>
        <mxCell id="jPC34qyZusBdzCv74OJ4-204" style="edgeStyle=orthogonalEdgeStyle;rounded=0;orthogonalLoop=1;jettySize=auto;html=1;entryX=0.5;entryY=0;entryDx=0;entryDy=0;" parent="1" source="jPC34qyZusBdzCv74OJ4-198" target="jPC34qyZusBdzCv74OJ4-115" edge="1">
          <mxGeometry relative="1" as="geometry">
            <Array as="points">
              <mxPoint x="440" y="509" />
              <mxPoint x="240" y="509" />
            </Array>
          </mxGeometry>
        </mxCell>
        <mxCell id="s2RxMkuQKkNdRKX4wx6J-20" style="edgeStyle=orthogonalEdgeStyle;rounded=0;orthogonalLoop=1;jettySize=auto;html=1;" edge="1" parent="1" source="jPC34qyZusBdzCv74OJ4-198">
          <mxGeometry relative="1" as="geometry">
            <mxPoint x="640" y="559" as="targetPoint" />
          </mxGeometry>
        </mxCell>
        <mxCell id="jPC34qyZusBdzCv74OJ4-198" value="doppelFloatN *= 10&lt;br&gt;i += 1" style="rounded=0;whiteSpace=wrap;html=1;" parent="1" vertex="1">
          <mxGeometry x="380" y="529" width="120" height="60" as="geometry" />
        </mxCell>
        <mxCell id="jPC34qyZusBdzCv74OJ4-208" value="" style="edgeStyle=orthogonalEdgeStyle;rounded=0;orthogonalLoop=1;jettySize=auto;html=1;" parent="1" source="jPC34qyZusBdzCv74OJ4-205" target="jPC34qyZusBdzCv74OJ4-207" edge="1">
          <mxGeometry relative="1" as="geometry" />
        </mxCell>
        <mxCell id="jPC34qyZusBdzCv74OJ4-205" value="floatN = (int) round(doppelFloatN)" style="rounded=0;whiteSpace=wrap;html=1;" parent="1" vertex="1">
          <mxGeometry x="180" y="650" width="120" height="60" as="geometry" />
        </mxCell>
        <mxCell id="jPC34qyZusBdzCv74OJ4-211" value="" style="edgeStyle=orthogonalEdgeStyle;rounded=0;orthogonalLoop=1;jettySize=auto;html=1;" parent="1" source="jPC34qyZusBdzCv74OJ4-207" target="s2RxMkuQKkNdRKX4wx6J-1" edge="1">
          <mxGeometry relative="1" as="geometry">
            <mxPoint x="390" y="800" as="targetPoint" />
          </mxGeometry>
        </mxCell>
        <mxCell id="jPC34qyZusBdzCv74OJ4-212" value="" style="edgeStyle=orthogonalEdgeStyle;rounded=0;orthogonalLoop=1;jettySize=auto;html=1;" parent="1" source="jPC34qyZusBdzCv74OJ4-207" edge="1">
          <mxGeometry relative="1" as="geometry">
            <mxPoint x="240" y="890" as="targetPoint" />
          </mxGeometry>
        </mxCell>
        <mxCell id="jPC34qyZusBdzCv74OJ4-207" value="abs(floatN) &amp;gt; abs(intN)?" style="rhombus;whiteSpace=wrap;html=1;" parent="1" vertex="1">
          <mxGeometry x="180" y="770" width="120" height="60" as="geometry" />
        </mxCell>
        <mxCell id="jPC34qyZusBdzCv74OJ4-213" value="&lt;font style=&quot;font-size: 15px;&quot;&gt;да&lt;/font&gt;" style="text;strokeColor=none;fillColor=none;html=1;fontSize=24;fontStyle=1;verticalAlign=middle;align=center;" parent="1" vertex="1">
          <mxGeometry x="260" y="760" width="100" height="40" as="geometry" />
        </mxCell>
        <mxCell id="jPC34qyZusBdzCv74OJ4-214" value="&lt;font style=&quot;font-size: 15px;&quot;&gt;нет&lt;/font&gt;" style="text;strokeColor=none;fillColor=none;html=1;fontSize=24;fontStyle=1;verticalAlign=middle;align=center;" parent="1" vertex="1">
          <mxGeometry x="210" y="570" width="100" height="40" as="geometry" />
        </mxCell>
        <mxCell id="jPC34qyZusBdzCv74OJ4-215" value="2" style="text;strokeColor=none;fillColor=none;html=1;fontSize=24;fontStyle=1;verticalAlign=middle;align=center;" parent="1" vertex="1">
          <mxGeometry x="390" width="100" height="40" as="geometry" />
        </mxCell>
        <mxCell id="s2RxMkuQKkNdRKX4wx6J-18" style="edgeStyle=orthogonalEdgeStyle;rounded=0;orthogonalLoop=1;jettySize=auto;html=1;" edge="1" parent="1" source="s2RxMkuQKkNdRKX4wx6J-1" target="s2RxMkuQKkNdRKX4wx6J-16">
          <mxGeometry relative="1" as="geometry">
            <mxPoint x="440" y="980" as="targetPoint" />
            <Array as="points">
              <mxPoint x="440" y="1040" />
            </Array>
          </mxGeometry>
        </mxCell>
        <mxCell id="s2RxMkuQKkNdRKX4wx6J-1" value="ret = 1" style="rounded=0;whiteSpace=wrap;html=1;" vertex="1" parent="1">
          <mxGeometry x="380" y="770" width="120" height="60" as="geometry" />
        </mxCell>
        <mxCell id="s2RxMkuQKkNdRKX4wx6J-17" value="" style="edgeStyle=orthogonalEdgeStyle;rounded=0;orthogonalLoop=1;jettySize=auto;html=1;" edge="1" parent="1" source="s2RxMkuQKkNdRKX4wx6J-2" target="s2RxMkuQKkNdRKX4wx6J-16">
          <mxGeometry relative="1" as="geometry" />
        </mxCell>
        <mxCell id="s2RxMkuQKkNdRKX4wx6J-2" value="ret = 0" style="rounded=0;whiteSpace=wrap;html=1;" vertex="1" parent="1">
          <mxGeometry x="180" y="890" width="120" height="60" as="geometry" />
        </mxCell>
        <mxCell id="s2RxMkuQKkNdRKX4wx6J-4" value="" style="edgeStyle=orthogonalEdgeStyle;rounded=0;orthogonalLoop=1;jettySize=auto;html=1;" edge="1" parent="1" source="s2RxMkuQKkNdRKX4wx6J-3" target="jPC34qyZusBdzCv74OJ4-197">
          <mxGeometry relative="1" as="geometry" />
        </mxCell>
        <mxCell id="s2RxMkuQKkNdRKX4wx6J-8" value="" style="edgeStyle=orthogonalEdgeStyle;rounded=0;orthogonalLoop=1;jettySize=auto;html=1;" edge="1" parent="1" source="s2RxMkuQKkNdRKX4wx6J-3" target="s2RxMkuQKkNdRKX4wx6J-7">
          <mxGeometry relative="1" as="geometry" />
        </mxCell>
        <mxCell id="s2RxMkuQKkNdRKX4wx6J-3" value="intN == 0?" style="rhombus;whiteSpace=wrap;html=1;" vertex="1" parent="1">
          <mxGeometry x="180" y="290" width="120" height="60" as="geometry" />
        </mxCell>
        <mxCell id="s2RxMkuQKkNdRKX4wx6J-5" value="&lt;font style=&quot;font-size: 15px;&quot;&gt;нет&lt;/font&gt;" style="text;strokeColor=none;fillColor=none;html=1;fontSize=24;fontStyle=1;verticalAlign=middle;align=center;" vertex="1" parent="1">
          <mxGeometry x="210" y="330" width="100" height="40" as="geometry" />
        </mxCell>
        <mxCell id="s2RxMkuQKkNdRKX4wx6J-11" value="" style="edgeStyle=orthogonalEdgeStyle;rounded=0;orthogonalLoop=1;jettySize=auto;html=1;" edge="1" parent="1" source="s2RxMkuQKkNdRKX4wx6J-7" target="s2RxMkuQKkNdRKX4wx6J-10">
          <mxGeometry relative="1" as="geometry" />
        </mxCell>
        <mxCell id="s2RxMkuQKkNdRKX4wx6J-13" value="" style="edgeStyle=orthogonalEdgeStyle;rounded=0;orthogonalLoop=1;jettySize=auto;html=1;" edge="1" parent="1" source="s2RxMkuQKkNdRKX4wx6J-7" target="s2RxMkuQKkNdRKX4wx6J-12">
          <mxGeometry relative="1" as="geometry" />
        </mxCell>
        <mxCell id="s2RxMkuQKkNdRKX4wx6J-7" value="number&amp;nbsp; == 0?" style="rhombus;whiteSpace=wrap;html=1;" vertex="1" parent="1">
          <mxGeometry x="380" y="290" width="120" height="60" as="geometry" />
        </mxCell>
        <mxCell id="s2RxMkuQKkNdRKX4wx6J-9" value="&lt;font style=&quot;font-size: 15px;&quot;&gt;да&lt;/font&gt;" style="text;strokeColor=none;fillColor=none;html=1;fontSize=24;fontStyle=1;verticalAlign=middle;align=center;" vertex="1" parent="1">
          <mxGeometry x="260" y="285" width="100" height="40" as="geometry" />
        </mxCell>
        <mxCell id="s2RxMkuQKkNdRKX4wx6J-10" value="ret = 1" style="rounded=0;whiteSpace=wrap;html=1;" vertex="1" parent="1">
          <mxGeometry x="380" y="410" width="120" height="60" as="geometry" />
        </mxCell>
        <mxCell id="s2RxMkuQKkNdRKX4wx6J-19" style="edgeStyle=orthogonalEdgeStyle;rounded=0;orthogonalLoop=1;jettySize=auto;html=1;" edge="1" parent="1" source="s2RxMkuQKkNdRKX4wx6J-12" target="s2RxMkuQKkNdRKX4wx6J-16">
          <mxGeometry relative="1" as="geometry">
            <mxPoint x="640" y="1042.5" as="targetPoint" />
            <Array as="points">
              <mxPoint x="640" y="1040" />
            </Array>
          </mxGeometry>
        </mxCell>
        <mxCell id="s2RxMkuQKkNdRKX4wx6J-12" value="ret = 0" style="rounded=0;whiteSpace=wrap;html=1;" vertex="1" parent="1">
          <mxGeometry x="580" y="290" width="120" height="60" as="geometry" />
        </mxCell>
        <mxCell id="s2RxMkuQKkNdRKX4wx6J-14" value="&lt;font style=&quot;font-size: 15px;&quot;&gt;да&lt;/font&gt;" style="text;strokeColor=none;fillColor=none;html=1;fontSize=24;fontStyle=1;verticalAlign=middle;align=center;" vertex="1" parent="1">
          <mxGeometry x="460" y="285" width="100" height="40" as="geometry" />
        </mxCell>
        <mxCell id="s2RxMkuQKkNdRKX4wx6J-15" value="&lt;font style=&quot;font-size: 15px;&quot;&gt;нет&lt;/font&gt;" style="text;strokeColor=none;fillColor=none;html=1;fontSize=24;fontStyle=1;verticalAlign=middle;align=center;" vertex="1" parent="1">
          <mxGeometry x="414" y="330" width="100" height="40" as="geometry" />
        </mxCell>
        <mxCell id="s2RxMkuQKkNdRKX4wx6J-16" value="&lt;font style=&quot;font-size: 10px;&quot;&gt;return ret&lt;/font&gt;" style="strokeWidth=1;html=1;shape=mxgraph.flowchart.terminator;whiteSpace=wrap;" vertex="1" parent="1">
          <mxGeometry x="190" y="1010" width="100" height="60" as="geometry" />
        </mxCell>
        <mxCell id="s2RxMkuQKkNdRKX4wx6J-21" value="H" style="text;strokeColor=none;fillColor=none;html=1;fontSize=24;fontStyle=1;verticalAlign=middle;align=center;" vertex="1" parent="1">
          <mxGeometry x="90" y="900" width="100" height="40" as="geometry" />
        </mxCell>
        <mxCell id="s2RxMkuQKkNdRKX4wx6J-22" value="I" style="text;strokeColor=none;fillColor=none;html=1;fontSize=24;fontStyle=1;verticalAlign=middle;align=center;" vertex="1" parent="1">
          <mxGeometry x="90" y="1020" width="100" height="40" as="geometry" />
        </mxCell>
        <mxCell id="s2RxMkuQKkNdRKX4wx6J-23" value="3" style="text;strokeColor=none;fillColor=none;html=1;fontSize=24;fontStyle=1;verticalAlign=middle;align=center;" vertex="1" parent="1">
          <mxGeometry x="590" width="100" height="40" as="geometry" />
        </mxCell>
      </root>
    </mxGraphModel>
  </diagram>
</mxfile>
